<svg width="36" height="40" viewBox="0 0 36 40" fill="none" xmlns="http://www.w3.org/2000/svg">
<path d="M34.4623 15.9752C34.1994 7.12165 26.916 0 17.9998 0C9.08369 0 1.80031 7.12165 1.53733 15.9752L0.352783 17.1598V25.1932L1.52925 26.3696V31.8431C1.52925 35.0435 4.13286 37.6471 7.33318 37.6471H8.79043C9.27608 39.0164 10.5838 40 12.1175 40H14.4704C16.0052 40 17.3136 39.015 17.7984 37.6442C17.8656 37.6454 17.933 37.6471 17.9998 37.6471C23.6813 37.6471 28.435 33.5987 29.528 28.2353H32.6048L35.6469 25.1932V17.1598L34.4623 15.9752ZM17.9998 2.35294C24.9827 2.35294 30.7968 7.44933 31.9203 14.1176H29.528C28.435 8.7542 23.6813 4.70588 17.9998 4.70588C12.3184 4.70588 7.56471 8.7542 6.47169 14.1176H4.07937C5.2029 7.44933 11.017 2.35294 17.9998 2.35294ZM27.1138 14.1176C23.3107 14.1063 20.6245 14.3379 18.4097 11.1004L17.3343 9.52839L16.41 11.1938C15.0634 13.6204 13.2498 14.1176 10.941 14.1176H8.88588C9.93333 10.0629 13.6224 7.05882 17.9998 7.05882C22.3773 7.05882 26.0664 10.0629 27.1138 14.1176ZM6.23514 25.8824H4.36949L2.70572 24.2186V18.1344L4.36949 16.4706H6.23514V25.8824ZM3.8822 31.8431V28.2353H6.46941C6.91231 30.4294 7.972 32.4435 9.54188 34.0611C9.21278 34.4127 8.95467 34.8311 8.79043 35.2941H7.33318C5.43027 35.2941 3.8822 33.746 3.8822 31.8431ZM14.4704 37.6471H12.1175C11.4687 37.6471 10.941 37.1194 10.941 36.4706C10.941 35.8219 11.4687 35.2941 12.1175 35.2941H14.4704C15.1191 35.2941 15.6469 35.8219 15.6469 36.4706C15.6469 37.1194 15.1191 37.6471 14.4704 37.6471ZM27.4116 25.8824C27.4116 31.072 23.1895 35.2941 17.9998 35.2941C17.9324 35.2941 17.8644 35.2928 17.7965 35.2912C17.31 33.9234 16.0031 32.9412 14.4704 32.9412C12.0547 32.9465 12.0933 32.9291 11.7922 32.9568C9.74965 31.1665 8.58808 28.6166 8.58808 25.8824V16.4706H10.941C13.0231 16.4706 15.5588 16.1273 17.5216 13.7384C20.1115 16.4524 23.2763 16.4706 26.1173 16.4706H27.4116V25.8824ZM33.294 24.2186L31.6302 25.8824H29.7646V16.4706H31.6302L33.294 18.1344V24.2186Z" fill="#3A3A3A"/>
</svg>
